<svg width="600" height="200" viewBox="0 0 600 200" fill="none" xmlns="http://www.w3.org/2000/svg">
<rect width="600" height="200" fill="url(#paint0_linear_4_53)"/>
<path d="M162.312 122V77.2H182.664C187.528 77.2 191.816 78.1387 195.528 80.016C199.24 81.8507 202.141 84.432 204.232 87.76C206.323 91.088 207.368 95.0347 207.368 99.6C207.368 104.123 206.323 108.069 204.232 111.44C202.141 114.768 199.24 117.371 195.528 119.248C191.816 121.083 187.528 122 182.664 122H162.312ZM172.68 113.488H182.152C185.139 113.488 187.72 112.933 189.896 111.824C192.115 110.672 193.821 109.051 195.016 106.96C196.253 104.869 196.872 102.416 196.872 99.6C196.872 96.7413 196.253 94.288 195.016 92.24C193.821 90.1493 192.115 88.5493 189.896 87.44C187.72 86.288 185.139 85.712 182.152 85.712H172.68V113.488ZM242.707 122.768C239.166 122.768 235.88 122.192 232.851 121.04C229.864 119.888 227.262 118.267 225.043 116.176C222.867 114.085 221.16 111.632 219.923 108.816C218.728 106 218.131 102.928 218.131 99.6C218.131 96.272 218.728 93.2 219.923 90.384C221.16 87.568 222.888 85.1147 225.107 83.024C227.326 80.9333 229.928 79.312 232.915 78.16C235.902 77.008 239.144 76.432 242.643 76.432C246.184 76.432 249.427 77.008 252.371 78.16C255.358 79.312 257.939 80.9333 260.115 83.024C262.334 85.1147 264.062 87.568 265.299 90.384C266.536 93.1573 267.155 96.2293 267.155 99.6C267.155 102.928 266.536 106.021 265.299 108.88C264.062 111.696 262.334 114.149 260.115 116.24C257.939 118.288 255.358 119.888 252.371 121.04C249.427 122.192 246.206 122.768 242.707 122.768ZM242.643 113.936C244.648 113.936 246.483 113.595 248.147 112.912C249.854 112.229 251.347 111.248 252.627 109.968C253.907 108.688 254.888 107.173 255.571 105.424C256.296 103.675 256.659 101.733 256.659 99.6C256.659 97.4667 256.296 95.5253 255.571 93.776C254.888 92.0267 253.907 90.512 252.627 89.232C251.39 87.952 249.918 86.9707 248.211 86.288C246.504 85.6053 244.648 85.264 242.643 85.264C240.638 85.264 238.782 85.6053 237.075 86.288C235.411 86.9707 233.939 87.952 232.659 89.232C231.379 90.512 230.376 92.0267 229.651 93.776C228.968 95.5253 228.627 97.4667 228.627 99.6C228.627 101.691 228.968 103.632 229.651 105.424C230.376 107.173 231.358 108.688 232.595 109.968C233.875 111.248 235.368 112.229 237.075 112.912C238.782 113.595 240.638 113.936 242.643 113.936ZM280.707 122V77.2H302.595C308.227 77.2 312.451 78.2667 315.267 80.4C318.126 82.5333 319.555 85.3493 319.555 88.848C319.555 91.1947 318.979 93.2427 317.827 94.992C316.675 96.6987 315.096 98.0213 313.091 98.96C311.086 99.8987 308.782 100.368 306.179 100.368L307.395 97.744C310.211 97.744 312.707 98.2133 314.883 99.152C317.059 100.048 318.744 101.392 319.939 103.184C321.176 104.976 321.795 107.173 321.795 109.776C321.795 113.616 320.28 116.624 317.251 118.8C314.222 120.933 309.763 122 303.875 122H280.707ZM291.011 114.192H303.107C305.795 114.192 307.822 113.765 309.187 112.912C310.595 112.016 311.299 110.608 311.299 108.688C311.299 106.811 310.595 105.424 309.187 104.528C307.822 103.589 305.795 103.12 303.107 103.12H290.243V95.568H301.315C303.832 95.568 305.752 95.1413 307.075 94.288C308.44 93.392 309.123 92.048 309.123 90.256C309.123 88.5067 308.44 87.2053 307.075 86.352C305.752 85.456 303.832 85.008 301.315 85.008H291.011V114.192ZM335.404 122V77.2H345.772V113.552H368.236V122H335.404ZM386.301 122V103.696L388.669 109.968L368.957 77.2H379.965L395.069 102.352H388.733L403.901 77.2H414.077L394.365 109.968L396.669 103.696V122H386.301ZM417.117 122L436.381 95.44V102.992L417.949 77.2H429.725L442.461 95.184L437.533 95.248L450.077 77.2H461.341L443.037 102.544V95.12L462.429 122H450.461L437.277 102.992H442.013L429.021 122H417.117ZM492.578 122L513.186 77.2H516.45L537.058 122H533.538L514.082 79.248H515.49L496.098 122H492.578ZM500.13 109.392L501.218 106.64H528.034L529.122 109.392H500.13ZM550.951 122V77.2H554.215V122H550.951Z" fill="white"/>
<path d="M65.2637 50C95.4937 50 120 74.5063 120 104.736C120 128.759 101.323 148.415 77.6973 149.984V137.367C84.9699 135.444 91.685 131.53 97.0703 126.409C104.844 119.018 109.211 108.992 109.211 98.5391C109.211 88.0858 104.844 78.0605 97.0703 70.6689C89.2969 63.2776 78.754 59.1251 67.7607 59.125L67.7598 98.5391V138.684L67.7607 138.683V149.726C46.4564 146.964 30 128.753 30 106.696V50H65.2637Z" fill="white"/>
<defs>
<linearGradient id="paint0_linear_4_53" x1="600" y1="0" x2="115.5" y2="162" gradientUnits="userSpaceOnUse">
<stop offset="0.0183944" stop-color="#3C679A"/>
<stop offset="1" stop-color="#1D2538"/>
</linearGradient>
</defs>
</svg>
